<?xml version="1.0" encoding="utf-8"?>
<!-- Generator: Adobe Illustrator 25.3.1, SVG Export Plug-In . SVG Version: 6.00 Build 0)  -->
<svg version="1.1" id="Capa_1" xmlns="http://www.w3.org/2000/svg" xmlns:xlink="http://www.w3.org/1999/xlink" x="0px" y="0px"
	 viewBox="0 0 841.9 257.3" style="enable-background:new 0 0 841.9 257.3;" xml:space="preserve">
<style type="text/css">
	.st0{fill:#FFFFFF;}
	.st1{fill:none;stroke:#FFFFFF;stroke-width:0.7;stroke-miterlimit:10;}
</style>
<g>
	<defs>
		<rect id="SVGID_1_" x="20.7" y="35.8" width="352.7" height="202.8"/>
	</defs>
	<clipPath id="SVGID_2_">
		<use xlink:href="#SVGID_1_"  style="overflow:visible;"/>
	</clipPath>
	<g style="clip-path:url(#SVGID_2_);">
		
			<image style="overflow:visible;" width="80" height="46" xlink:href="3A94C35D98F7C808.png"  transform="matrix(4.4091 0 0 4.4091 20.6902 35.8411)">
		</image>
	</g>
</g>
<g>
	<defs>
		<rect id="SVGID_3_" x="20.7" y="35.8" width="806.9" height="202.8"/>
	</defs>
	<clipPath id="SVGID_4_">
		<use xlink:href="#SVGID_3_"  style="overflow:visible;"/>
	</clipPath>
	<g style="clip-path:url(#SVGID_4_);">
		<text transform="matrix(1 0 0 1 -1553.3733 190.164)"><tspan x="0" y="0" class="st0" style="font-family:'ErotiqueTrial-Bold'; font-size:154.32px; letter-spacing:-13;">t</tspan><tspan x="64.2" y="0" class="st0" style="font-family:'ErotiqueTrial-Bold'; font-size:154.32px; letter-spacing:4;">h</tspan><tspan x="176.5" y="0" class="st0" style="font-family:'ErotiqueTrial-Bold'; font-size:154.32px;">a</tspan></text>
	</g>
</g>
<g>
	<defs>
		<rect id="SVGID_5_" x="285.2" y="49.1" width="158.7" height="189.6"/>
	</defs>
	<clipPath id="SVGID_6_">
		<use xlink:href="#SVGID_5_"  style="overflow:visible;"/>
	</clipPath>
	<g style="clip-path:url(#SVGID_6_);">
		
			<image style="overflow:visible;" width="36" height="43" xlink:href="3A94C35D98F7C809.png"  transform="matrix(4.4091 0 0 4.4091 285.2389 49.0686)">
		</image>
	</g>
</g>
<g>
	<defs>
		<rect id="SVGID_7_" x="20.7" y="35.8" width="806.9" height="202.8"/>
	</defs>
	<clipPath id="SVGID_8_">
		<use xlink:href="#SVGID_7_"  style="overflow:visible;"/>
	</clipPath>
	<g style="clip-path:url(#SVGID_8_);">
		
			<text transform="matrix(1 0 0 1 -1287.0559 190.164)" class="st0" style="font-family:'ErotiqueTrial-Bold'; font-size:154.32px;">t</text>
	</g>
</g>
<g>
	<defs>
		<rect id="SVGID_9_" x="342.6" y="35.8" width="476.2" height="202.8"/>
	</defs>
	<clipPath id="SVGID_10_">
		<use xlink:href="#SVGID_9_"  style="overflow:visible;"/>
	</clipPath>
	<g style="clip-path:url(#SVGID_10_);">
		
			<image style="overflow:visible;" width="108" height="46" xlink:href="3A94C35D98F7C80F.png"  transform="matrix(4.4091 0 0 4.4091 342.5578 35.8411)">
		</image>
	</g>
</g>
<g>
	<defs>
		<rect id="SVGID_11_" x="20.7" y="35.8" width="806.9" height="202.8"/>
	</defs>
	<clipPath id="SVGID_12_">
		<use xlink:href="#SVGID_11_"  style="overflow:visible;"/>
	</clipPath>
	<g style="clip-path:url(#SVGID_12_);">
		<text transform="matrix(1 0 0 1 -1226.5764 190.164)"><tspan x="0" y="0" class="st0" style="font-family:'ErotiqueTrial-Bold'; font-size:154.32px; letter-spacing:-2;">w</tspan><tspan x="144.3" y="0" class="st0" style="font-family:'ErotiqueTrial-Bold'; font-size:154.32px; letter-spacing:4;">al</tspan><tspan x="291.4" y="0" class="st0" style="font-family:'ErotiqueTrial-Bold'; font-size:154.32px;">k</tspan></text>
	</g>
</g>
<g>
	<defs>
		<rect id="SVGID_13_" x="20.7" y="35.8" width="806.9" height="202.8"/>
	</defs>
	<clipPath id="SVGID_14_">
		<use xlink:href="#SVGID_13_"  style="overflow:visible;"/>
	</clipPath>
	<g style="clip-path:url(#SVGID_14_);">
		<text transform="matrix(1 0 0 1 -1553.3733 190.164)"><tspan x="0" y="0" class="st1" style="font-family:'ErotiqueTrial-Bold'; font-size:154.32px; letter-spacing:-13;">t</tspan><tspan x="64.2" y="0" class="st1" style="font-family:'ErotiqueTrial-Bold'; font-size:154.32px; letter-spacing:4;">h</tspan><tspan x="176.5" y="0" class="st1" style="font-family:'ErotiqueTrial-Bold'; font-size:154.32px;">a</tspan></text>
	</g>
</g>
<g>
	<defs>
		<rect id="SVGID_15_" x="20.7" y="35.8" width="806.9" height="202.8"/>
	</defs>
	<clipPath id="SVGID_16_">
		<use xlink:href="#SVGID_15_"  style="overflow:visible;"/>
	</clipPath>
	<g style="clip-path:url(#SVGID_16_);">
		
			<text transform="matrix(1 0 0 1 -1287.0559 190.164)" class="st1" style="font-family:'ErotiqueTrial-Bold'; font-size:154.32px;">t</text>
	</g>
</g>
<g>
	<defs>
		<rect id="SVGID_17_" x="20.7" y="35.8" width="806.9" height="202.8"/>
	</defs>
	<clipPath id="SVGID_18_">
		<use xlink:href="#SVGID_17_"  style="overflow:visible;"/>
	</clipPath>
	<g style="clip-path:url(#SVGID_18_);">
		<text transform="matrix(1 0 0 1 -1226.5764 190.164)"><tspan x="0" y="0" class="st1" style="font-family:'ErotiqueTrial-Bold'; font-size:154.32px; letter-spacing:-2;">w</tspan><tspan x="144.3" y="0" class="st1" style="font-family:'ErotiqueTrial-Bold'; font-size:154.32px; letter-spacing:4;">al</tspan><tspan x="291.4" y="0" class="st1" style="font-family:'ErotiqueTrial-Bold'; font-size:154.32px;">k</tspan></text>
	</g>
</g>
<g>
	<g>
		<path class="st0" d="M137.5,153.2c0.5,0.2,0.6,0.5,0.4,1c-4.4,11.2-9.4,20.3-15,27.2c-5.6,6.9-12.4,10.3-20.7,10.3
			c-7.5,0-13.8-2.2-18.8-6.6c-5-4.4-7.6-10.5-7.6-18.2v-53.2H64.1c-0.4,0-0.6-0.2-0.6-0.6c0-0.4,0.2-0.7,0.6-0.8
			c6.5-2.2,11.7-5.3,15.5-9.3c3.9-4.1,6.5-9.5,7.8-16.3c0.1-0.3,0.3-0.4,0.5-0.4c0.2,0.1,0.3,0.2,0.3,0.4v25.6h34
			c0.6,0,0.9,0.2,1,0.7c0,0.5-0.3,0.7-1,0.7H88v48.8c0,7.4,1.5,13.7,4.6,18.8c3.1,5.1,7.6,7.7,13.4,7.7c6,0,11.5-3.2,16.6-9.6
			c5.1-6.4,9.7-14.9,13.8-25.6C136.7,153.2,137,153,137.5,153.2z"/>
		<path class="st0" d="M232.1,190.1c0,0.4-0.3,0.5-0.8,0.5c-3.5,0-6.6-0.1-9.3-0.3c-0.8-0.1-2-0.2-3.6-0.2h-10.6
			c-1.5,0-2.7,0.1-3.5,0.2c-2.7,0.2-5.8,0.3-9.3,0.3c-0.4,0-0.6-0.2-0.6-0.5c0-0.4,0.2-0.5,0.6-0.5c4.2-0.1,7.1-0.7,8.6-1.9
			c1.5-1.2,2.3-3.2,2.3-6.1c0-1.1-0.3-3.9-0.9-8.2l-4.8-30.1c-1.8-10.7-3.9-18.1-6.3-22.1c-2.5-4-5.8-6-10-6c-4.9,0-9.5,2.7-13.8,8
			c-4.3,5.4-7.9,12.8-11,22.5c-3,9.6-5.2,20.7-6.4,33.1c0.2,4,1.1,6.8,2.6,8.3c1.5,1.5,4.6,2.4,9.3,2.5c0.5,0,0.8,0.2,0.8,0.5
			c0,0.4-0.3,0.5-0.8,0.5c-3.5,0-6.6-0.1-9.3-0.3c-0.8-0.1-2-0.2-3.6-0.2h-10.5c-1.5,0-2.7,0.1-3.6,0.2c-2.7,0.2-5.8,0.3-9.3,0.3
			c-0.4,0-0.6-0.2-0.6-0.5c0-0.4,0.2-0.5,0.6-0.5c3.8,0,6.6-0.5,8.3-1.5c1.7-1,2.7-2.6,3.2-4.7c0.4-2.1,0.6-5.5,0.6-10.1V95.3
			c0-4.5-0.8-7.9-2.5-10.1c-1.6-2.2-4.7-3.2-9.3-2.9c-0.4,0.1-0.6,0-0.6-0.3c0-0.3,0.2-0.5,0.6-0.6c3.2-0.9,7.1-2.3,11.8-4
			c4.7-1.7,8.4-3.3,11-4.8c0.2-0.2,0.4-0.2,0.6-0.1c0.2,0.2,0.3,0.4,0.3,0.7v22.1l0.2,31.8l-2.6,53.9h0.8
			c1.7-16.1,4.5-29.2,8.3-39.6c3.8-10.3,8.1-17.9,13.1-22.7c5-4.8,10.3-7.2,15.8-7.2c5.3,0,9.6,1.2,12.8,3.7
			c3.2,2.5,5.7,6.1,7.5,10.9c1.8,4.8,3.3,11.3,4.6,19.5l4.3,27.8c0.7,4.8,1.4,8.2,2.1,10.2s1.9,3.4,3.6,4.5c1.7,1,4.5,1.5,8.3,1.5
			C231.9,189.5,232.1,189.7,232.1,190.1z"/>
		<path class="st0" d="M332.4,181.6c0.4,0.2,0.5,0.4,0.4,0.8c-1.9,3.2-3.8,5.6-5.7,7.1c-2,1.5-4.6,2.3-7.9,2.3
			c-4.3,0-7.5-1.2-9.6-3.7c-2.1-2.5-3.5-5.5-4.2-9l-5.1-28.4c-0.4,7.2-2.4,14-5.9,20.4c-3.6,6.4-8.1,11.5-13.5,15.4
			c-5.5,3.9-11.2,5.8-17.1,5.8c-6.7,0-12.1-1.6-16.1-4.9c-4.1-3.2-6.1-7.4-6.1-12.6c0-8,4.7-14.8,14-20.3
			c9.4-5.5,23.8-9.2,43.4-11.2l-1.7-8.3c-1.5-7.2-4-12.8-7.5-16.8c-3.4-4-7.3-6-11.5-6c-10.4,0-18.8,3.6-25.2,10.7
			c-6.4,7.2-12,17.7-16.7,31.6c-0.2,0.4-0.5,0.6-0.8,0.6c-0.3,0-0.5-0.1-0.6-0.3c-0.1-0.2-0.1-0.4,0-0.6c3.5-10,7.2-18.1,11.2-24.4
			c4-6.3,8.7-11,14.3-14.3c5.6-3.2,12.2-4.9,20.1-4.9c7.7,0,14.1,1.8,19.1,5.2c5,3.5,8.4,10.4,10.3,20.7l7.7,43.4
			c0.4,2.5,1.1,4.6,2.2,6.3c1,1.8,2.3,2.6,3.9,2.6c1.6,0,3-0.6,4.1-1.7c1.1-1.1,2.4-2.9,4.1-5.4C331.7,181.5,332,181.4,332.4,181.6z
			 M285.4,180.6c4.4-4.3,7.9-9.8,10.3-16.4s3.6-13.1,3.4-19.4c-17.4,1.3-29.1,4.6-35.1,9.7c-6,5.1-9,10.7-9,16.7
			c0,5,1.3,8.9,3.8,11.7c2.5,2.8,6.5,4.2,11.8,4.2C276,187.1,280.9,184.9,285.4,180.6z"/>
	</g>
	<g>
		<path class="st0" d="M403.8,153.2c0.5,0.2,0.6,0.5,0.4,1c-4.4,11.2-9.4,20.3-15,27.2c-5.6,6.9-12.4,10.3-20.7,10.3
			c-7.5,0-13.8-2.2-18.8-6.6c-5-4.4-7.6-10.5-7.6-18.2v-53.2h-11.7c-0.4,0-0.6-0.2-0.6-0.6c0-0.4,0.2-0.7,0.6-0.8
			c6.5-2.2,11.7-5.3,15.5-9.3c3.9-4.1,6.5-9.5,7.8-16.3c0.1-0.3,0.3-0.4,0.5-0.4c0.2,0.1,0.3,0.2,0.3,0.4v25.6h34
			c0.6,0,0.9,0.2,1,0.7c0,0.5-0.3,0.7-1,0.7h-34.1v48.8c0,7.4,1.5,13.7,4.6,18.8c3.1,5.1,7.6,7.7,13.4,7.7c6,0,11.5-3.2,16.6-9.6
			c5.1-6.4,9.7-14.9,13.8-25.6C403,153.2,403.3,153,403.8,153.2z"/>
	</g>
	<g>
		<path class="st0" d="M536.6,112.8c0,0.4-0.3,0.5-0.8,0.5c-7.8,0-14.6,0.1-20.3,0.3c-5.7,0.2-8.9,0.8-9.5,1.9
			c-0.3,0.4-0.3,0.9,0.1,1.3c0.4,0.5,1.1,1.2,2.1,2.1c2.4,2.2,4.3,4.6,5.9,7.2c1.6,2.6,2.4,6.1,2.4,10.4c0,4.4-1.1,9.2-3.2,14.2
			c-2.1,5-4.6,9.9-7.5,14.5c-2.9,4.6-6.8,10.6-11.9,18.1l-5.4,8.2h-4.2l-29.3-70.7h-0.9c0.9,2.7,1.7,5.2,2.2,7.6
			c0.6,2.4,0.8,5.2,0.8,8.4c0,7.6-1.6,15.5-4.8,23.8c-3.2,8.2-7.4,16-12.5,23.3l-5.6,7.6h-4.3l-23-55.4c-2.6-6.2-4.8-10.8-6.6-13.9
			c-1.8-3.1-3.7-5.3-5.6-6.6c-2-1.3-4.4-2.1-7.3-2.2c-0.4,0-0.6-0.2-0.6-0.5c0-0.4,0.2-0.5,0.6-0.5c3.2,0,6,0.1,8.5,0.3
			c0.7,0.1,1.7,0.2,3.1,0.2h11c1.9,0,3.3,0,4.3-0.2c3.3-0.2,7.4-0.3,12.2-0.3c0.5,0,0.8,0.2,0.8,0.5c0,0.4-0.3,0.5-0.8,0.5
			c-3.8,0.1-6.6,0.7-8.3,1.8c-1.8,1.1-2.6,3-2.6,5.6c0,3,1.4,8.1,4.3,15.3l19.1,46.1c4.9-7.5,9-15,12-22.4
			c3.1-7.4,4.6-15.1,4.6-23.1c0-2.7-0.2-5-0.5-6.9c-0.4-1.9-1.1-4.2-2.1-7c-1.2-3.5-2.9-5.9-4.9-7.3c-2.1-1.4-4.7-2.1-8-2.1
			c-0.4,0-0.6-0.2-0.6-0.5c0-0.4,0.2-0.5,0.6-0.5l9.3,0.2c3.9,0.2,7.3,0.3,10.2,0.3h12.8h27.8l14.5-0.2c9.9-0.2,16.9-0.3,21-0.3
			C536.3,112.2,536.6,112.4,536.6,112.8z M509.1,121.6c-4-3.3-8.2-5.5-12.7-6.4c-4.4-0.9-8.1-1.4-11-1.4h-7.3
			c-5.2,0-7.9,2.5-7.9,7.4c0,3.3,1,7.5,3.1,12.7l19.9,47.8c4.5-6.5,8.2-11.9,11-16.2c2.8-4.3,5.3-9.1,7.5-14.4
			c2.2-5.2,3.3-10.1,3.3-14.7C515.1,129.9,513.1,124.9,509.1,121.6z"/>
		<path class="st0" d="M626.9,181.6c0.4,0.2,0.5,0.4,0.4,0.8c-1.9,3.2-3.8,5.6-5.7,7.1c-2,1.5-4.6,2.3-7.9,2.3
			c-4.3,0-7.5-1.2-9.6-3.7c-2.1-2.5-3.5-5.5-4.2-9l-5.1-28.4c-0.4,7.2-2.4,14-5.9,20.4c-3.5,6.4-8.1,11.5-13.5,15.4
			c-5.5,3.9-11.2,5.8-17.1,5.8c-6.7,0-12.1-1.6-16.1-4.9c-4.1-3.2-6.1-7.4-6.1-12.6c0-8,4.7-14.8,14-20.3
			c9.4-5.5,23.8-9.2,43.4-11.2l-1.7-8.3c-1.5-7.2-4-12.8-7.5-16.8c-3.4-4-7.3-6-11.5-6c-10.4,0-18.8,3.6-25.2,10.7
			c-6.4,7.2-12,17.7-16.7,31.6c-0.2,0.4-0.5,0.6-0.8,0.6c-0.3,0-0.5-0.1-0.6-0.3s-0.1-0.4,0-0.6c3.5-10,7.2-18.1,11.2-24.4
			c4-6.3,8.7-11,14.3-14.3c5.6-3.2,12.2-4.9,20.1-4.9c7.7,0,14.1,1.8,19.1,5.2c5,3.5,8.4,10.4,10.3,20.7l7.7,43.4
			c0.4,2.5,1.1,4.6,2.2,6.3c1,1.8,2.3,2.6,3.9,2.6c1.6,0,3-0.6,4.1-1.7c1.1-1.1,2.4-2.9,4.1-5.4
			C626.3,181.5,626.5,181.4,626.9,181.6z M579.9,180.6c4.4-4.3,7.9-9.8,10.3-16.4c2.5-6.6,3.6-13.1,3.4-19.4
			c-17.4,1.3-29.1,4.6-35.1,9.7c-6,5.1-9,10.7-9,16.7c0,5,1.3,8.9,3.8,11.7c2.5,2.8,6.5,4.2,11.8,4.2
			C570.6,187.1,575.5,184.9,579.9,180.6z"/>
		<path class="st0" d="M642.3,190.3c-2.7,0.2-5.8,0.3-9.3,0.3c-0.4,0-0.6-0.2-0.6-0.5c0-0.4,0.2-0.5,0.6-0.5c3.8,0,6.6-0.5,8.3-1.5
			c1.7-1,2.8-2.6,3.2-4.7c0.4-2.1,0.6-5.5,0.6-10.1V96.3c0-4.5-0.8-7.9-2.5-10.1c-1.6-2.2-4.7-3.2-9.3-2.9c-0.4,0.1-0.6,0-0.6-0.3
			c0-0.3,0.2-0.5,0.6-0.6c3.2-0.9,7.1-2.3,11.8-4c4.7-1.7,8.4-3.3,11-4.8c0.2-0.2,0.4-0.2,0.6-0.1c0.2,0.2,0.3,0.4,0.3,0.7v98.9
			c0,4.6,0.2,8,0.6,10.1c0.4,2.1,1.5,3.7,3.2,4.7c1.7,1,4.4,1.5,8.3,1.5c0.5,0,0.8,0.2,0.8,0.5c0,0.4-0.3,0.5-0.8,0.5
			c-3.5,0-6.6-0.1-9.3-0.3c-0.8-0.1-2-0.2-3.6-0.2h-10.5C644.3,190.2,643.1,190.2,642.3,190.3z"/>
		<path class="st0" d="M777.3,190.1c0,0.4-0.3,0.5-0.8,0.5c-3.7,0-7-0.1-9.9-0.3c-0.8-0.1-2-0.2-3.4-0.2h-11l-5.9-28.9
			c-0.9-4.6-1.8-8.3-2.5-11.1c-0.8-2.8-2-5.2-3.6-7.3c-1.6-2.1-3.8-3.2-6.3-3.2c-4.2,0-8.2,1.5-12,4.5l-1.5,1.4h-0.2
			c-3.8,3.6-6.9,8.2-9.3,13.9c-2.4,5.7-3.8,11.6-4.2,17.9c0.1,3.2,0.5,5.6,1.1,7.3c0.6,1.6,1.7,2.9,3.4,3.7c1.6,0.8,4.2,1.2,7.6,1.2
			c0.5,0,0.8,0.2,0.8,0.5c0,0.4-0.3,0.5-0.8,0.5c-3.5,0-6.6-0.1-9.3-0.3c-0.8-0.1-2-0.2-3.6-0.2h-10.5c-1.5,0-2.7,0.1-3.5,0.2
			c-2.7,0.2-5.8,0.3-9.3,0.3c-0.4,0-0.6-0.2-0.6-0.5c0-0.4,0.2-0.5,0.6-0.5c3.8,0,6.6-0.5,8.3-1.5c1.7-1,2.8-2.6,3.2-4.7
			c0.4-2.1,0.6-5.5,0.6-10.1V94.9c0-4.5-0.8-7.9-2.5-10.1c-1.6-2.2-4.7-3.2-9.3-2.9c-0.4,0.1-0.6,0-0.6-0.3c0-0.3,0.2-0.5,0.6-0.6
			c3.2-0.9,7.1-2.3,11.8-4c4.7-1.7,8.4-3.3,11-4.8c0.2-0.2,0.4-0.2,0.6-0.1c0.2,0.2,0.3,0.4,0.3,0.7v22.1l-0.2,44l-2.6,42h0.8
			c0.6-8.6,2.4-16.1,5.2-22.4c2.9-6.3,6.5-11.3,11-15l13-12.3c4.8-4.6,7.3-8.5,7.3-11.7c0-4.2-3.9-6.4-11.7-6.5
			c-0.6,0-0.9-0.2-0.9-0.5s0.3-0.5,0.9-0.5c5.3,0,10.8,0.1,16.4,0.3c1.7,0.1,3.9,0.2,6.3,0.2h1.4c2,0,3.7-0.1,5.1-0.2
			c4.3-0.2,8.8-0.3,13.4-0.3c0.5,0,0.8,0.2,0.8,0.5s-0.3,0.5-0.8,0.5c-10.1,0.1-21.7,6-34.9,17.7l-9.9,8.8c3.9-1.9,7.9-2.8,12-2.8
			c5.8,0,10,1.9,12.6,5.6c2.6,3.8,4.8,9.3,6.4,16.7l1.4,6.5c1.4,6.5,2.8,11.4,4.1,14.7c1.3,3.3,2.9,5.6,4.9,7c2,1.4,4.7,2.1,7.9,2.2
			C777,189.5,777.3,189.7,777.3,190.1z"/>
	</g>
	<g>
		<path class="st1" d="M137.5,153.2c0.5,0.2,0.6,0.5,0.4,1c-4.4,11.2-9.4,20.3-15,27.2c-5.6,6.9-12.4,10.3-20.7,10.3
			c-7.5,0-13.8-2.2-18.8-6.6c-5-4.4-7.6-10.5-7.6-18.2v-53.2H64.1c-0.4,0-0.6-0.2-0.6-0.6c0-0.4,0.2-0.7,0.6-0.8
			c6.5-2.2,11.7-5.3,15.5-9.3c3.9-4.1,6.5-9.5,7.8-16.3c0.1-0.3,0.3-0.4,0.5-0.4c0.2,0.1,0.3,0.2,0.3,0.4v25.6h34
			c0.6,0,0.9,0.2,1,0.7c0,0.5-0.3,0.7-1,0.7H88v48.8c0,7.4,1.5,13.7,4.6,18.8c3.1,5.1,7.6,7.7,13.4,7.7c6,0,11.5-3.2,16.6-9.6
			c5.1-6.4,9.7-14.9,13.8-25.6C136.7,153.2,137,153,137.5,153.2z"/>
		<path class="st1" d="M232.1,190.1c0,0.4-0.3,0.5-0.8,0.5c-3.5,0-6.6-0.1-9.3-0.3c-0.8-0.1-2-0.2-3.6-0.2h-10.6
			c-1.5,0-2.7,0.1-3.5,0.2c-2.7,0.2-5.8,0.3-9.3,0.3c-0.4,0-0.6-0.2-0.6-0.5c0-0.4,0.2-0.5,0.6-0.5c4.2-0.1,7.1-0.7,8.6-1.9
			c1.5-1.2,2.3-3.2,2.3-6.1c0-1.1-0.3-3.9-0.9-8.2l-4.8-30.1c-1.8-10.7-3.9-18.1-6.3-22.1c-2.5-4-5.8-6-10-6c-4.9,0-9.5,2.7-13.8,8
			c-4.3,5.4-7.9,12.8-11,22.5c-3,9.6-5.2,20.7-6.4,33.1c0.2,4,1.1,6.8,2.6,8.3c1.5,1.5,4.6,2.4,9.3,2.5c0.5,0,0.8,0.2,0.8,0.5
			c0,0.4-0.3,0.5-0.8,0.5c-3.5,0-6.6-0.1-9.3-0.3c-0.8-0.1-2-0.2-3.6-0.2h-10.5c-1.5,0-2.7,0.1-3.6,0.2c-2.7,0.2-5.8,0.3-9.3,0.3
			c-0.4,0-0.6-0.2-0.6-0.5c0-0.4,0.2-0.5,0.6-0.5c3.8,0,6.6-0.5,8.3-1.5c1.7-1,2.7-2.6,3.2-4.7c0.4-2.1,0.6-5.5,0.6-10.1V95.3
			c0-4.5-0.8-7.9-2.5-10.1c-1.6-2.2-4.7-3.2-9.3-2.9c-0.4,0.1-0.6,0-0.6-0.3c0-0.3,0.2-0.5,0.6-0.6c3.2-0.9,7.1-2.3,11.8-4
			c4.7-1.7,8.4-3.3,11-4.8c0.2-0.2,0.4-0.2,0.6-0.1c0.2,0.2,0.3,0.4,0.3,0.7v22.1l0.2,31.8l-2.6,53.9h0.8
			c1.7-16.1,4.5-29.2,8.3-39.6c3.8-10.3,8.1-17.9,13.1-22.7c5-4.8,10.3-7.2,15.8-7.2c5.3,0,9.6,1.2,12.8,3.7
			c3.2,2.5,5.7,6.1,7.5,10.9c1.8,4.8,3.3,11.3,4.6,19.5l4.3,27.8c0.7,4.8,1.4,8.2,2.1,10.2s1.9,3.4,3.6,4.5c1.7,1,4.5,1.5,8.3,1.5
			C231.9,189.5,232.1,189.7,232.1,190.1z"/>
		<path class="st1" d="M332.4,181.6c0.4,0.2,0.5,0.4,0.4,0.8c-1.9,3.2-3.8,5.6-5.7,7.1c-2,1.5-4.6,2.3-7.9,2.3
			c-4.3,0-7.5-1.2-9.6-3.7c-2.1-2.5-3.5-5.5-4.2-9l-5.1-28.4c-0.4,7.2-2.4,14-5.9,20.4c-3.6,6.4-8.1,11.5-13.5,15.4
			c-5.5,3.9-11.2,5.8-17.1,5.8c-6.7,0-12.1-1.6-16.1-4.9c-4.1-3.2-6.1-7.4-6.1-12.6c0-8,4.7-14.8,14-20.3
			c9.4-5.5,23.8-9.2,43.4-11.2l-1.7-8.3c-1.5-7.2-4-12.8-7.5-16.8c-3.4-4-7.3-6-11.5-6c-10.4,0-18.8,3.6-25.2,10.7
			c-6.4,7.2-12,17.7-16.7,31.6c-0.2,0.4-0.5,0.6-0.8,0.6c-0.3,0-0.5-0.1-0.6-0.3c-0.1-0.2-0.1-0.4,0-0.6c3.5-10,7.2-18.1,11.2-24.4
			c4-6.3,8.7-11,14.3-14.3c5.6-3.2,12.2-4.9,20.1-4.9c7.7,0,14.1,1.8,19.1,5.2c5,3.5,8.4,10.4,10.3,20.7l7.7,43.4
			c0.4,2.5,1.1,4.6,2.2,6.3c1,1.8,2.3,2.6,3.9,2.6c1.6,0,3-0.6,4.1-1.7c1.1-1.1,2.4-2.9,4.1-5.4C331.7,181.5,332,181.4,332.4,181.6z
			 M285.4,180.6c4.4-4.3,7.9-9.8,10.3-16.4s3.6-13.1,3.4-19.4c-17.4,1.3-29.1,4.6-35.1,9.7c-6,5.1-9,10.7-9,16.7
			c0,5,1.3,8.9,3.8,11.7c2.5,2.8,6.5,4.2,11.8,4.2C276,187.1,280.9,184.9,285.4,180.6z"/>
	</g>
	<g>
		<path class="st1" d="M403.8,153.2c0.5,0.2,0.6,0.5,0.4,1c-4.4,11.2-9.4,20.3-15,27.2c-5.6,6.9-12.4,10.3-20.7,10.3
			c-7.5,0-13.8-2.2-18.8-6.6c-5-4.4-7.6-10.5-7.6-18.2v-53.2h-11.7c-0.4,0-0.6-0.2-0.6-0.6c0-0.4,0.2-0.7,0.6-0.8
			c6.5-2.2,11.7-5.3,15.5-9.3c3.9-4.1,6.5-9.5,7.8-16.3c0.1-0.3,0.3-0.4,0.5-0.4c0.2,0.1,0.3,0.2,0.3,0.4v25.6h34
			c0.6,0,0.9,0.2,1,0.7c0,0.5-0.3,0.7-1,0.7h-34.1v48.8c0,7.4,1.5,13.7,4.6,18.8c3.1,5.1,7.6,7.7,13.4,7.7c6,0,11.5-3.2,16.6-9.6
			c5.1-6.4,9.7-14.9,13.8-25.6C403,153.2,403.3,153,403.8,153.2z"/>
	</g>
	<g>
		<path class="st1" d="M536.6,112.8c0,0.4-0.3,0.5-0.8,0.5c-7.8,0-14.6,0.1-20.3,0.3c-5.7,0.2-8.9,0.8-9.5,1.9
			c-0.3,0.4-0.3,0.9,0.1,1.3c0.4,0.5,1.1,1.2,2.1,2.1c2.4,2.2,4.3,4.6,5.9,7.2c1.6,2.6,2.4,6.1,2.4,10.4c0,4.4-1.1,9.2-3.2,14.2
			c-2.1,5-4.6,9.9-7.5,14.5c-2.9,4.6-6.8,10.6-11.9,18.1l-5.4,8.2h-4.2l-29.3-70.7h-0.9c0.9,2.7,1.7,5.2,2.2,7.6
			c0.6,2.4,0.8,5.2,0.8,8.4c0,7.6-1.6,15.5-4.8,23.8c-3.2,8.2-7.4,16-12.5,23.3l-5.6,7.6h-4.3l-23-55.4c-2.6-6.2-4.8-10.8-6.6-13.9
			c-1.8-3.1-3.7-5.3-5.6-6.6c-2-1.3-4.4-2.1-7.3-2.2c-0.4,0-0.6-0.2-0.6-0.5c0-0.4,0.2-0.5,0.6-0.5c3.2,0,6,0.1,8.5,0.3
			c0.7,0.1,1.7,0.2,3.1,0.2h11c1.9,0,3.3,0,4.3-0.2c3.3-0.2,7.4-0.3,12.2-0.3c0.5,0,0.8,0.2,0.8,0.5c0,0.4-0.3,0.5-0.8,0.5
			c-3.8,0.1-6.6,0.7-8.3,1.8c-1.8,1.1-2.6,3-2.6,5.6c0,3,1.4,8.1,4.3,15.3l19.1,46.1c4.9-7.5,9-15,12-22.4
			c3.1-7.4,4.6-15.1,4.6-23.1c0-2.7-0.2-5-0.5-6.9c-0.4-1.9-1.1-4.2-2.1-7c-1.2-3.5-2.9-5.9-4.9-7.3c-2.1-1.4-4.7-2.1-8-2.1
			c-0.4,0-0.6-0.2-0.6-0.5c0-0.4,0.2-0.5,0.6-0.5l9.3,0.2c3.9,0.2,7.3,0.3,10.2,0.3h12.8h27.8l14.5-0.2c9.9-0.2,16.9-0.3,21-0.3
			C536.3,112.2,536.6,112.4,536.6,112.8z M509.1,121.6c-4-3.3-8.2-5.5-12.7-6.4c-4.4-0.9-8.1-1.4-11-1.4h-7.3
			c-5.2,0-7.9,2.5-7.9,7.4c0,3.3,1,7.5,3.1,12.7l19.9,47.8c4.5-6.5,8.2-11.9,11-16.2c2.8-4.3,5.3-9.1,7.5-14.4
			c2.2-5.2,3.3-10.1,3.3-14.7C515.1,129.9,513.1,124.9,509.1,121.6z"/>
		<path class="st1" d="M626.9,181.6c0.4,0.2,0.5,0.4,0.4,0.8c-1.9,3.2-3.8,5.6-5.7,7.1c-2,1.5-4.6,2.3-7.9,2.3
			c-4.3,0-7.5-1.2-9.6-3.7c-2.1-2.5-3.5-5.5-4.2-9l-5.1-28.4c-0.4,7.2-2.4,14-5.9,20.4c-3.5,6.4-8.1,11.5-13.5,15.4
			c-5.5,3.9-11.2,5.8-17.1,5.8c-6.7,0-12.1-1.6-16.1-4.9c-4.1-3.2-6.1-7.4-6.1-12.6c0-8,4.7-14.8,14-20.3
			c9.4-5.5,23.8-9.2,43.4-11.2l-1.7-8.3c-1.5-7.2-4-12.8-7.5-16.8c-3.4-4-7.3-6-11.5-6c-10.4,0-18.8,3.6-25.2,10.7
			c-6.4,7.2-12,17.7-16.7,31.6c-0.2,0.4-0.5,0.6-0.8,0.6c-0.3,0-0.5-0.1-0.6-0.3s-0.1-0.4,0-0.6c3.5-10,7.2-18.1,11.2-24.4
			c4-6.3,8.7-11,14.3-14.3c5.6-3.2,12.2-4.9,20.1-4.9c7.7,0,14.1,1.8,19.1,5.2c5,3.5,8.4,10.4,10.3,20.7l7.7,43.4
			c0.4,2.5,1.1,4.6,2.2,6.3c1,1.8,2.3,2.6,3.9,2.6c1.6,0,3-0.6,4.1-1.7c1.1-1.1,2.4-2.9,4.1-5.4
			C626.3,181.5,626.5,181.4,626.9,181.6z M579.9,180.6c4.4-4.3,7.9-9.8,10.3-16.4c2.5-6.6,3.6-13.1,3.4-19.4
			c-17.4,1.3-29.1,4.6-35.1,9.7c-6,5.1-9,10.7-9,16.7c0,5,1.3,8.9,3.8,11.7c2.5,2.8,6.5,4.2,11.8,4.2
			C570.6,187.1,575.5,184.9,579.9,180.6z"/>
		<path class="st1" d="M642.3,190.3c-2.7,0.2-5.8,0.3-9.3,0.3c-0.4,0-0.6-0.2-0.6-0.5c0-0.4,0.2-0.5,0.6-0.5c3.8,0,6.6-0.5,8.3-1.5
			c1.7-1,2.8-2.6,3.2-4.7c0.4-2.1,0.6-5.5,0.6-10.1V96.3c0-4.5-0.8-7.9-2.5-10.1c-1.6-2.2-4.7-3.2-9.3-2.9c-0.4,0.1-0.6,0-0.6-0.3
			c0-0.3,0.2-0.5,0.6-0.6c3.2-0.9,7.1-2.3,11.8-4c4.7-1.7,8.4-3.3,11-4.8c0.2-0.2,0.4-0.2,0.6-0.1c0.2,0.2,0.3,0.4,0.3,0.7v98.9
			c0,4.6,0.2,8,0.6,10.1c0.4,2.1,1.5,3.7,3.2,4.7c1.7,1,4.4,1.5,8.3,1.5c0.5,0,0.8,0.2,0.8,0.5c0,0.4-0.3,0.5-0.8,0.5
			c-3.5,0-6.6-0.1-9.3-0.3c-0.8-0.1-2-0.2-3.6-0.2h-10.5C644.3,190.2,643.1,190.2,642.3,190.3z"/>
		<path class="st1" d="M777.3,190.1c0,0.4-0.3,0.5-0.8,0.5c-3.7,0-7-0.1-9.9-0.3c-0.8-0.1-2-0.2-3.4-0.2h-11l-5.9-28.9
			c-0.9-4.6-1.8-8.3-2.5-11.1c-0.8-2.8-2-5.2-3.6-7.3c-1.6-2.1-3.8-3.2-6.3-3.2c-4.2,0-8.2,1.5-12,4.5l-1.5,1.4h-0.2
			c-3.8,3.6-6.9,8.2-9.3,13.9c-2.4,5.7-3.8,11.6-4.2,17.9c0.1,3.2,0.5,5.6,1.1,7.3c0.6,1.6,1.7,2.9,3.4,3.7c1.6,0.8,4.2,1.2,7.6,1.2
			c0.5,0,0.8,0.2,0.8,0.5c0,0.4-0.3,0.5-0.8,0.5c-3.5,0-6.6-0.1-9.3-0.3c-0.8-0.1-2-0.2-3.6-0.2h-10.5c-1.5,0-2.7,0.1-3.5,0.2
			c-2.7,0.2-5.8,0.3-9.3,0.3c-0.4,0-0.6-0.2-0.6-0.5c0-0.4,0.2-0.5,0.6-0.5c3.8,0,6.6-0.5,8.3-1.5c1.7-1,2.8-2.6,3.2-4.7
			c0.4-2.1,0.6-5.5,0.6-10.1V94.9c0-4.5-0.8-7.9-2.5-10.1c-1.6-2.2-4.7-3.2-9.3-2.9c-0.4,0.1-0.6,0-0.6-0.3c0-0.3,0.2-0.5,0.6-0.6
			c3.2-0.9,7.1-2.3,11.8-4c4.7-1.7,8.4-3.3,11-4.8c0.2-0.2,0.4-0.2,0.6-0.1c0.2,0.2,0.3,0.4,0.3,0.7v22.1l-0.2,44l-2.6,42h0.8
			c0.6-8.6,2.4-16.1,5.2-22.4c2.9-6.3,6.5-11.3,11-15l13-12.3c4.8-4.6,7.3-8.5,7.3-11.7c0-4.2-3.9-6.4-11.7-6.5
			c-0.6,0-0.9-0.2-0.9-0.5s0.3-0.5,0.9-0.5c5.3,0,10.8,0.1,16.4,0.3c1.7,0.1,3.9,0.2,6.3,0.2h1.4c2,0,3.7-0.1,5.1-0.2
			c4.3-0.2,8.8-0.3,13.4-0.3c0.5,0,0.8,0.2,0.8,0.5s-0.3,0.5-0.8,0.5c-10.1,0.1-21.7,6-34.9,17.7l-9.9,8.8c3.9-1.9,7.9-2.8,12-2.8
			c5.8,0,10,1.9,12.6,5.6c2.6,3.8,4.8,9.3,6.4,16.7l1.4,6.5c1.4,6.5,2.8,11.4,4.1,14.7c1.3,3.3,2.9,5.6,4.9,7c2,1.4,4.7,2.1,7.9,2.2
			C777,189.5,777.3,189.7,777.3,190.1z"/>
	</g>
</g>
</svg>
